<svg id="レイヤー_1" data-name="レイヤー 1" xmlns="http://www.w3.org/2000/svg" viewBox="0 0 342.12 50.07"><defs><style>.cls-1{fill:none;}.cls-2{fill:#598edc;}</style></defs><rect class="cls-1" x="-23.82" y="-24.56" width="389.75" height="99.2"/><path class="cls-2" d="M52.56.78V11H68.12V49.29h11V11H94.71V.78Z"/><path class="cls-2" d="M234,.78H206.21V11.07h27c4,0,5.51,1.81,5.51,6.45v1.71H216.34c-8.51,0-12.75,4.26-12.75,13.89v2.29c0,9.89,4.39,13.87,13.22,13.87h32.83V17.39C249.64,5.17,245.6.78,234,.78ZM218,38.92c-1.67,0-3.54-.85-3.54-5S216.26,29,218,29h20.77v9.9Z"/><path class="cls-2" d="M325.45.78H297.71V11.07h27c4,0,5.51,1.81,5.51,6.45v1.71H307.84c-8.51,0-12.75,4.26-12.75,13.89v2.29c0,9.89,4.4,13.87,13.22,13.87h32.83V17.39C341.14,5.17,337.1.78,325.45.78Zm-16,38.14c-1.66,0-3.54-.85-3.54-5S307.76,29,309.45,29h20.78v9.9Z"/><path class="cls-2" d="M98.21.78V11h15.57V49.29h11V11h15.57V.78Z"/><path class="cls-2" d="M251.85.78V11h15.56V49.29h11V11H294V.78Z"/><path class="cls-2" d="M199.32,32.29V17.77c0-12.71-4.93-17-16-17H153.76v48.5h30C195.59,49.28,199.32,43.42,199.32,32.29Zm-11.25.21c0,4.65-1.57,6.46-5.53,6.46H164.79V11.11h17.75c4,0,5.53,1.81,5.53,6.45Z"/><path class="cls-2" d="M37,37.73c-.24-.44-15-29.14-16.77-32C18.18,2.5,15.65.24,10.81.24,6.31.24,1,2.23,1,13V49.3H11.85V19.05c0-2.17-.14-5.39-.16-6s0-1,.27-1.19.62.11.83.51,13.87,27.41,16.77,32c2.08,3.27,4.6,5.53,9.45,5.53,4.49,0,9.82-2,9.82-12.8V.76H38V31c0,2.17.13,5.39.16,6s0,1-.27,1.19S37.23,38.13,37,37.73Z"/><rect class="cls-1" x="-23.82" y="-24.56" width="389.75" height="99.2"/><path class="cls-2" d="M52.56.78V11H68.12V49.29h11V11H94.71V.78Z"/><path class="cls-2" d="M234,.78H206.21V11.07h27c4,0,5.51,1.81,5.51,6.45v1.71H216.34c-8.51,0-12.75,4.26-12.75,13.89v2.29c0,9.89,4.39,13.87,13.22,13.87h32.83V17.39C249.64,5.17,245.6.78,234,.78ZM218,38.92c-1.67,0-3.54-.85-3.54-5S216.26,29,218,29h20.77v9.9Z"/><path class="cls-2" d="M325.45.78H297.71V11.07h27c4,0,5.51,1.81,5.51,6.45v1.71H307.84c-8.51,0-12.75,4.26-12.75,13.89v2.29c0,9.89,4.4,13.87,13.22,13.87h32.83V17.39C341.14,5.17,337.1.78,325.45.78Zm-16,38.14c-1.66,0-3.54-.85-3.54-5S307.76,29,309.45,29h20.78v9.9Z"/><path class="cls-2" d="M98.21.78V11h15.57V49.29h11V11h15.57V.78Z"/><path class="cls-2" d="M251.85.78V11h15.56V49.29h11V11H294V.78Z"/><path class="cls-2" d="M199.32,32.29V17.77c0-12.71-4.93-17-16-17H153.76v48.5h30C195.59,49.28,199.32,43.42,199.32,32.29Zm-11.25.21c0,4.65-1.57,6.46-5.53,6.46H164.79V11.11h17.75c4,0,5.53,1.81,5.53,6.45Z"/><path class="cls-2" d="M37,37.73c-.24-.44-15-29.14-16.77-32C18.18,2.5,15.65.24,10.81.24,6.31.24,1,2.23,1,13V49.3H11.85V19.05c0-2.17-.14-5.39-.16-6s0-1,.27-1.19.62.11.83.51,13.87,27.41,16.77,32c2.08,3.27,4.6,5.53,9.45,5.53,4.49,0,9.82-2,9.82-12.8V.76H38V31c0,2.17.13,5.39.16,6s0,1-.27,1.19S37.23,38.13,37,37.73Z"/></svg>